<?xml version="1.0" encoding="utf-8"?>
<!-- Generator: Adobe Illustrator 28.2.0, SVG Export Plug-In . SVG Version: 6.00 Build 0)  -->
<svg version="1.0" id="Layer_1" xmlns="http://www.w3.org/2000/svg" xmlns:xlink="http://www.w3.org/1999/xlink" x="0px" y="0px"
	 viewBox="0 0 64 64" style="enable-background:new 0 0 64 64;" xml:space="preserve">
<style type="text/css">
	.st0{fill:none;stroke:#ffff;stroke-width:2;stroke-linecap:round;stroke-linejoin:round;stroke-miterlimit:10;}
</style>
<g>
	<path class="st0" d="M49.9,21.5H14.1c-2,0-3.6-1.6-3.6-3.6v0c0-2,1.6-3.6,3.6-3.6h35.8c2,0,3.6,1.6,3.6,3.6v0
		C53.5,19.9,51.9,21.5,49.9,21.5z"/>
	<path class="st0" d="M14.7,14.4V9c4.1,0,7.4-3.3,7.4-7.3h19.9c0,4.1,3.3,7.3,7.3,7.3v5.4"/>
	<polyline class="st0" points="49.3,21.5 49.3,51.4 14.7,51.4 14.7,21.5 	"/>
	<path class="st0" d="M56,62.3H8v-6.7c0-2.3,1.9-4.2,4.2-4.2h39.6c2.3,0,4.2,1.9,4.2,4.2V62.3z"/>
	<rect x="18.2" y="24.7" class="st0" width="27.7" height="23.5"/>
	<line class="st0" x1="11.8" y1="56.9" x2="51.8" y2="56.9"/>
	<rect x="24.5" y="30.2" class="st0" width="14.8" height="4.1"/>
	<line class="st0" x1="24.5" y1="38.6" x2="39.4" y2="38.6"/>
	<line class="st0" x1="26.9" y1="42.7" x2="37" y2="42.7"/>
</g>
</svg>
