<svg aria-hidden="true" style="position: absolute; width: 0; height: 0; overflow: hidden;" version="1.1" xmlns="http://www.w3.org/2000/svg" xmlns:xlink="http://www.w3.org/1999/xlink">
<defs>

<svg id="icon-logo" viewBox="0 0 64 64">
<g >
	<path class="st0" d="M49.4,52.7H14.6V29.1c0-6,2.4-11.8,6.6-16.1L32,2l10.7,10.9c4.2,4.3,6.6,10.1,6.6,16.1V52.7z"/>
	<path class="st0" d="M45.6,48.9H18.4V28.7c0-4.7,1.9-9.3,5.2-12.7L32,7.5l8.4,8.5c3.3,3.4,5.2,7.9,5.2,12.7V48.9z"/>
	<path class="st0" d="M52.4,57.3H11.6v-2.5c0-1.2,1-2.1,2.1-2.1h36.6c1.2,0,2.1,1,2.1,2.1V57.3z"/>
	<path class="st0" d="M55.6,62H8.4v-2.5c0-1.2,1-2.1,2.1-2.1h43c1.2,0,2.1,1,2.1,2.1V62z"/>
	<line class="st0" x1="25.5" y1="25.2" x2="38.5" y2="25.2"/>
	<line class="st0" x1="23.8" y1="29.2" x2="40.2" y2="29.2"/>
	<line class="st0" x1="23.8" y1="37.3" x2="40.2" y2="37.3"/>
	<line class="st0" x1="26.4" y1="33.2" x2="37.6" y2="33.2"/>
	<line class="st0" x1="25.5" y1="41.3" x2="38.5" y2="41.3"/>
</g>
</svg>

<symbol id="icon-arrow" viewBox="0 0 24 24" >
<g  id="SVGRepo_bgCarrier" strokeWidth="0"></g><g id="SVGRepo_tracerCarrier" stroke-linecap="round" strokeLinejoin="round"></g><g id="SVGRepo_iconCarrier"> <path d="M6 12H18M18 12L13 7M18 12L13 17" strokeWidth="2" strokeLinecap="round" strokeLinejoin="round"></path> </g>
</symbol>

<symbol id="icon-email" viewBox="0 0 512 512">
<g>
	<path class="st0" d="M440.917,67.925H71.083C31.827,67.925,0,99.752,0,139.008v233.984c0,39.256,31.827,71.083,71.083,71.083
		h369.834c39.255,0,71.083-31.827,71.083-71.083V139.008C512,99.752,480.172,67.925,440.917,67.925z M178.166,321.72l-99.54,84.92
		c-7.021,5.992-17.576,5.159-23.567-1.869c-5.992-7.021-5.159-17.576,1.87-23.567l99.54-84.92c7.02-5.992,17.574-5.159,23.566,1.87
		C186.027,305.174,185.194,315.729,178.166,321.72z M256,289.436c-13.314-0.033-26.22-4.457-36.31-13.183l0.008,0.008l-0.032-0.024
		c0.008,0.008,0.017,0.008,0.024,0.016L66.962,143.694c-6.98-6.058-7.723-16.612-1.674-23.583c6.057-6.98,16.612-7.723,23.582-1.674
		l152.771,132.592c3.265,2.906,8.645,5.004,14.359,4.971c5.706,0.017,10.995-2.024,14.44-5.028l0.074-0.065l152.615-132.469
		c6.971-6.049,17.526-5.306,23.583,1.674c6.048,6.97,5.306,17.525-1.674,23.583l-152.77,132.599
		C282.211,284.929,269.322,289.419,256,289.436z M456.948,404.771c-5.992,7.028-16.547,7.861-23.566,1.869l-99.54-84.92
		c-7.028-5.992-7.861-16.546-1.869-23.566c5.991-7.029,16.546-7.861,23.566-1.87l99.54,84.92
		C462.107,387.195,462.94,397.75,456.948,404.771z"/>
</g>
</symbol>

<symbol id="icon-phone" viewBox="0 0 24 24">
<path d="M15.5562 14.5477L15.1007 15.0272C15.1007 15.0272 14.0181 16.167 11.0631 13.0559C8.10812 9.94484 9.1907 8.80507 9.1907 8.80507L9.47752 8.50311C10.1841 7.75924 10.2507 6.56497 9.63424 5.6931L8.37326 3.90961C7.61028 2.8305 6.13596 2.68795 5.26145 3.60864L3.69185 5.26114C3.25823 5.71766 2.96765 6.30945 3.00289 6.96594C3.09304 8.64546 3.81071 12.259 7.81536 16.4752C12.0621 20.9462 16.0468 21.1239 17.6763 20.9631C18.1917 20.9122 18.6399 20.6343 19.0011 20.254L20.4217 18.7584C21.3806 17.7489 21.1102 16.0182 19.8833 15.312L17.9728 14.2123C17.1672 13.7486 16.1858 13.8848 15.5562 14.5477Z" />
<path d="M13.2595 1.87983C13.3257 1.47094 13.7122 1.19357 14.1211 1.25976C14.1464 1.26461 14.2279 1.27983 14.2705 1.28933C14.3559 1.30834 14.4749 1.33759 14.6233 1.38082C14.9201 1.46726 15.3347 1.60967 15.8323 1.8378C16.8286 2.29456 18.1544 3.09356 19.5302 4.46936C20.906 5.84516 21.705 7.17097 22.1617 8.16725C22.3899 8.66487 22.5323 9.07947 22.6187 9.37625C22.6619 9.52466 22.6912 9.64369 22.7102 9.72901C22.7197 9.77168 22.7267 9.80594 22.7315 9.83125L22.7373 9.86245C22.8034 10.2713 22.5286 10.6739 22.1197 10.7401C21.712 10.8061 21.3279 10.53 21.2601 10.1231C21.258 10.1121 21.2522 10.0828 21.2461 10.0551C21.2337 9.9997 21.2124 9.91188 21.1786 9.79572C21.1109 9.56339 20.9934 9.21806 20.7982 8.79238C20.4084 7.94207 19.7074 6.76789 18.4695 5.53002C17.2317 4.29216 16.0575 3.59117 15.2072 3.20134C14.7815 3.00618 14.4362 2.88865 14.2038 2.82097C14.0877 2.78714 13.9417 2.75363 13.8863 2.7413C13.4793 2.67347 13.1935 2.28755 13.2595 1.87983Z" />
<path fill-rule="evenodd" clip-rule="evenodd" d="M13.4857 5.3293C13.5995 4.93102 14.0146 4.7004 14.4129 4.81419L14.2069 5.53534C14.4129 4.81419 14.4129 4.81419 14.4129 4.81419L14.4144 4.81461L14.4159 4.81505L14.4192 4.81602L14.427 4.81834L14.4468 4.8245C14.4618 4.82932 14.4807 4.8356 14.5031 4.84357C14.548 4.85951 14.6074 4.88217 14.6802 4.91337C14.8259 4.97581 15.0249 5.07223 15.2695 5.21694C15.7589 5.50662 16.4271 5.9878 17.2121 6.77277C17.9971 7.55775 18.4782 8.22593 18.7679 8.7154C18.9126 8.95991 19.009 9.15897 19.0715 9.30466C19.1027 9.37746 19.1254 9.43682 19.1413 9.48173C19.1493 9.50418 19.1555 9.52301 19.1604 9.53809L19.1665 9.55788L19.1688 9.56563L19.1698 9.56896L19.1702 9.5705C19.1702 9.5705 19.1707 9.57194 18.4495 9.77798L19.1707 9.57194C19.2845 9.97021 19.0538 10.3853 18.6556 10.4991C18.2607 10.6119 17.8492 10.3862 17.7313 9.99413L17.7276 9.98335C17.7223 9.96832 17.7113 9.93874 17.6928 9.89554C17.6558 9.8092 17.5887 9.66797 17.4771 9.47938C17.2541 9.10264 16.8514 8.53339 16.1514 7.83343C15.4515 7.13348 14.8822 6.73078 14.5055 6.50781C14.3169 6.39619 14.1757 6.32909 14.0893 6.29209C14.0461 6.27358 14.0165 6.26254 14.0015 6.25721L13.9907 6.25352C13.5987 6.13564 13.3729 5.72419 13.4857 5.3293Z" /></symbol>

<symbol id="icon-cross" viewBox="0 0 32 32">
<path stroke-linejoin="round" stroke-linecap="round" stroke-miterlimit="4" stroke-width="2" d="M25.333 6.667l-18.667 18.667M6.667 6.667l18.667 18.667"></path>
</symbol>

<symbol  id="icon-mobile-menu-open" viewBox="0 0 24 24">
		<path d="M4 5h16a1 1 0 0 1 0 2H4a1 1 0 1 1 0-2zm0 6h16a1 1 0 0 1 0 2H4a1 1 0 0 1 0-2zm0 6h16a1 1 0 0 1 0 2H4a1 1 0 0 1 0-2z"/>
 </symbol>

</defs>
</svg>
