<svg aria-hidden="true" style="position: absolute; width: 0; height: 0; overflow: hidden;" version="1.1" xmlns="http://www.w3.org/2000/svg" xmlns:xlink="http://www.w3.org/1999/xlink">
<defs>

<svg id="icon-logo" viewBox="0 0 64 64">
<g >
	<path className="st0" d="M49.4,52.7H14.6V29.1c0-6,2.4-11.8,6.6-16.1L32,2l10.7,10.9c4.2,4.3,6.6,10.1,6.6,16.1V52.7z"/>
	<path className="st0" d="M45.6,48.9H18.4V28.7c0-4.7,1.9-9.3,5.2-12.7L32,7.5l8.4,8.5c3.3,3.4,5.2,7.9,5.2,12.7V48.9z"/>
	<path className="st0" d="M52.4,57.3H11.6v-2.5c0-1.2,1-2.1,2.1-2.1h36.6c1.2,0,2.1,1,2.1,2.1V57.3z"/>
	<path className="st0" d="M55.6,62H8.4v-2.5c0-1.2,1-2.1,2.1-2.1h43c1.2,0,2.1,1,2.1,2.1V62z"/>
	<line className="st0" x1="25.5" y1="25.2" x2="38.5" y2="25.2"/>
	<line className="st0" x1="23.8" y1="29.2" x2="40.2" y2="29.2"/>
	<line className="st0" x1="23.8" y1="37.3" x2="40.2" y2="37.3"/>
	<line className="st0" x1="26.4" y1="33.2" x2="37.6" y2="33.2"/>
	<line className="st0" x1="25.5" y1="41.3" x2="38.5" y2="41.3"/>
</g>
</svg>

<symbol id="icon-arrow" viewBox="0 0 24 24" >
<g  id="SVGRepo_bgCarrier" strokeWidth="0"></g><g id="SVGRepo_tracerCarrier" stroke-linecap="round" strokeLinejoin="round"></g><g id="SVGRepo_iconCarrier"> <path d="M6 12H18M18 12L13 7M18 12L13 17" strokeWidth="2" strokeLinecap="round" strokeLinejoin="round"></path> </g>
</symbol>

<symbol id="icon-delivery" viewBox="0 0 512 512"  xml:space="preserve">
<g>
	<path className="st0" d="M116.683,354.34c-26.836,0-48.607,21.764-48.607,48.6c0,26.85,21.771,48.614,48.607,48.614
		c26.844,0,48.608-21.764,48.608-48.614C165.29,376.104,143.526,354.34,116.683,354.34z M116.683,424.826
		c-12.08,0-21.872-9.799-21.872-21.886c0-12.073,9.792-21.865,21.872-21.865c12.08,0,21.872,9.792,21.872,21.865
		C138.554,415.027,128.762,424.826,116.683,424.826z"/>
	<path className="st0" d="M403.8,354.34c-26.836,0-48.6,21.764-48.6,48.6c0,26.85,21.764,48.614,48.6,48.614
		c26.843,0,48.606-21.764,48.606-48.614C452.406,376.104,430.643,354.34,403.8,354.34z M403.8,424.826
		c-12.073,0-21.865-9.799-21.865-21.886c0-12.073,9.792-21.865,21.865-21.865c12.079,0,21.871,9.792,21.871,21.865
		C425.671,415.027,415.879,424.826,403.8,424.826z"/>
	<path className="st0" d="M200.127,128.622H90.502c-3.561,0-6.957,1.582-9.23,4.331l-78.48,94.163C0.986,229.268,0,231.994,0,234.815
		v82.595v43.189c0,6.648,5.389,12.029,12.03,12.029h36.844c11.626-25.9,37.621-44.024,67.81-44.024
		c30.196,0,56.183,18.124,67.81,44.024h27.671V140.652C212.163,134.003,206.767,128.622,200.127,128.622z M43.931,236.052
		c0-2.849,0.978-5.612,2.777-7.82l50.103-61.694c2.36-2.907,5.9-4.59,9.633-4.59h49.083c6.848,0,12.404,5.554,12.404,12.411v70.011
		c0,6.849-5.555,12.404-12.404,12.404H56.334c-6.85,0-12.404-5.554-12.404-12.404V236.052z"/>
	<path className="st0" d="M243.532,338.792c-3.741,0-6.763,3.03-6.763,6.77v20.303c0,3.735,3.022,6.763,6.763,6.763h92.466
		c6.382-14.209,17.072-26.023,30.419-33.836H243.532z"/>
	<path className="st0" d="M504.381,338.792h-63.19c13.353,7.814,24.044,19.627,30.419,33.836h32.772c3.741,0,6.77-3.028,6.77-6.763
		v-20.303C511.151,341.822,508.122,338.792,504.381,338.792z"/>
	<path className="st0" d="M497.568,60.446H252.043c-7.964,0-14.425,6.46-14.425,14.432v226.703c0,7.972,6.461,14.432,14.425,14.432
		h245.525c7.971,0,14.432-6.46,14.432-14.432V74.878C512,66.906,505.539,60.446,497.568,60.446z M458.27,134.09H291.355
		c-3.741,0-6.771-3.036-6.771-6.763v-13.533c0-3.741,3.03-6.77,6.771-6.77H458.27c3.735,0,6.763,3.029,6.763,6.77v13.533
		C465.033,131.054,462.005,134.09,458.27,134.09z M291.355,174.697H458.27c3.735,0,6.763,3.021,6.763,6.763V195
		c0,3.727-3.028,6.763-6.763,6.763H291.355c-3.741,0-6.771-3.036-6.771-6.763v-13.54
		C284.584,177.718,287.614,174.697,291.355,174.697z M291.355,242.369H458.27c3.735,0,6.763,3.022,6.763,6.763v13.533
		c0,3.727-3.028,6.77-6.763,6.77H291.355c-3.741,0-6.771-3.044-6.771-6.77v-13.533C284.584,245.391,287.614,242.369,291.355,242.369
		z"/>
</g>
</symbol>

<symbol id="icon-clock" viewBox="0 0 24 24">
<path d="M12 7V12L14.5 10.5M21 12C21 16.9706 16.9706 21 12 21C7.02944 21 3 16.9706 3 12C3 7.02944 7.02944 3 12 3C16.9706 3 21 7.02944 21 12Z" stroke-width="2" stroke-linecap="round" stroke-linejoin="round"/>
</symbol>

<symbol id="icon-quality" viewBox="0 0 24 24">
    <g>
        <g>
            <path d="M17.0020594,17.4830721 L17.0007001,22.2453233 C17.0007001,22.7945586 16.4297842,23.157512 15.9324488,22.9244522 L12.0005291,21.0818879 L8.07069102,22.9243915 C7.5733438,23.1575726 7.00231009,22.7946207 7.00231009,22.2453233 L7.00260026,17.4861909 C8.43218245,18.4424048 10.1509746,19 12,19 C13.8510348,19 15.5715531,18.4411922 17.0020594,17.4830721 Z M12,2 C16.418278,2 20,5.581722 20,10 C20,14.418278 16.418278,18 12,18 C7.581722,18 4,14.418278 4,10 C4,5.581722 7.581722,2 12,2 Z M11.8084497,6.58610926 L11.7712148,6.64234387 L10.8586922,8.49499737 L8.81472896,8.79035658 C8.62860433,8.81725218 8.54185205,9.02358857 8.63135587,9.17274189 L8.67333197,9.22553178 L10.1533251,10.6658938 L9.80260908,12.7010893 C9.77067264,12.8864156 9.94010228,13.0326834 10.1096137,12.9936511 L10.1727912,12.9700424 L12,12.0075816 L13.8272087,12.9700424 C13.9935181,13.0576439 14.1849216,12.9418506 14.2003028,12.7686538 L14.1974269,12.7012993 L13.8484251,10.6658938 L15.326776,9.22542655 C15.4614232,9.09422981 15.4102807,8.87641205 15.2502405,8.80838398 L15.185271,8.79035658 L13.1413078,8.49499737 L12.2287851,6.64234387 C12.1560771,6.494728 11.9762193,6.46192448 11.8558892,6.54393329 L11.8084497,6.58610926 L11.8084497,6.58610926 Z">

</path>
        </g>
    </g>
</symbol>

<symbol id="icon-chat" viewBox="0 0 24 24">
<path fillRule="evenodd" clipRule="evenodd" d="M13.0867 21.3877L13.6288 20.4718C14.0492 19.7614 14.2595 19.4062 14.5972 19.2098C14.9349 19.0134 15.36 19.0061 16.2104 18.9915C17.4658 18.9698 18.2531 18.8929 18.9134 18.6194C20.1386 18.1119 21.1119 17.1386 21.6194 15.9134C22 14.9946 22 13.8297 22 11.5V10.5C22 7.22657 22 5.58985 21.2632 4.38751C20.8509 3.71473 20.2853 3.14908 19.6125 2.7368C18.4101 2 16.7734 2 13.5 2H10.5C7.22657 2 5.58985 2 4.38751 2.7368C3.71473 3.14908 3.14908 3.71473 2.7368 4.38751C2 5.58985 2 7.22657 2 10.5V11.5C2 13.8297 2 14.9946 2.3806 15.9134C2.88807 17.1386 3.86144 18.1119 5.08658 18.6194C5.74689 18.8929 6.53422 18.9698 7.78958 18.9915C8.63992 19.0061 9.06509 19.0134 9.40279 19.2098C9.74049 19.4063 9.95073 19.7614 10.3712 20.4718L10.9133 21.3877C11.3965 22.204 12.6035 22.204 13.0867 21.3877ZM16 12C16.5523 12 17 11.5523 17 11C17 10.4477 16.5523 10 16 10C15.4477 10 15 10.4477 15 11C15 11.5523 15.4477 12 16 12ZM13 11C13 11.5523 12.5523 12 12 12C11.4477 12 11 11.5523 11 11C11 10.4477 11.4477 10 12 10C12.5523 10 13 10.4477 13 11ZM8 12C8.55228 12 9 11.5523 9 11C9 10.4477 8.55228 10 8 10C7.44772 10 7 10.4477 7 11C7 11.5523 7.44772 12 8 12Z"/>
</symbol>

<symbol id="icon-email" viewBox="0 0 512 512">
<g>
	<path className="st0" d="M440.917,67.925H71.083C31.827,67.925,0,99.752,0,139.008v233.984c0,39.256,31.827,71.083,71.083,71.083
		h369.834c39.255,0,71.083-31.827,71.083-71.083V139.008C512,99.752,480.172,67.925,440.917,67.925z M178.166,321.72l-99.54,84.92
		c-7.021,5.992-17.576,5.159-23.567-1.869c-5.992-7.021-5.159-17.576,1.87-23.567l99.54-84.92c7.02-5.992,17.574-5.159,23.566,1.87
		C186.027,305.174,185.194,315.729,178.166,321.72z M256,289.436c-13.314-0.033-26.22-4.457-36.31-13.183l0.008,0.008l-0.032-0.024
		c0.008,0.008,0.017,0.008,0.024,0.016L66.962,143.694c-6.98-6.058-7.723-16.612-1.674-23.583c6.057-6.98,16.612-7.723,23.582-1.674
		l152.771,132.592c3.265,2.906,8.645,5.004,14.359,4.971c5.706,0.017,10.995-2.024,14.44-5.028l0.074-0.065l152.615-132.469
		c6.971-6.049,17.526-5.306,23.583,1.674c6.048,6.97,5.306,17.525-1.674,23.583l-152.77,132.599
		C282.211,284.929,269.322,289.419,256,289.436z M456.948,404.771c-5.992,7.028-16.547,7.861-23.566,1.869l-99.54-84.92
		c-7.028-5.992-7.861-16.546-1.869-23.566c5.991-7.029,16.546-7.861,23.566-1.87l99.54,84.92
		C462.107,387.195,462.94,397.75,456.948,404.771z"/>
</g>
</symbol>

<symbol id="icon-phone" viewBox="0 0 24 24">
<path d="M15.5562 14.5477L15.1007 15.0272C15.1007 15.0272 14.0181 16.167 11.0631 13.0559C8.10812 9.94484 9.1907 8.80507 9.1907 8.80507L9.47752 8.50311C10.1841 7.75924 10.2507 6.56497 9.63424 5.6931L8.37326 3.90961C7.61028 2.8305 6.13596 2.68795 5.26145 3.60864L3.69185 5.26114C3.25823 5.71766 2.96765 6.30945 3.00289 6.96594C3.09304 8.64546 3.81071 12.259 7.81536 16.4752C12.0621 20.9462 16.0468 21.1239 17.6763 20.9631C18.1917 20.9122 18.6399 20.6343 19.0011 20.254L20.4217 18.7584C21.3806 17.7489 21.1102 16.0182 19.8833 15.312L17.9728 14.2123C17.1672 13.7486 16.1858 13.8848 15.5562 14.5477Z" />
<path d="M13.2595 1.87983C13.3257 1.47094 13.7122 1.19357 14.1211 1.25976C14.1464 1.26461 14.2279 1.27983 14.2705 1.28933C14.3559 1.30834 14.4749 1.33759 14.6233 1.38082C14.9201 1.46726 15.3347 1.60967 15.8323 1.8378C16.8286 2.29456 18.1544 3.09356 19.5302 4.46936C20.906 5.84516 21.705 7.17097 22.1617 8.16725C22.3899 8.66487 22.5323 9.07947 22.6187 9.37625C22.6619 9.52466 22.6912 9.64369 22.7102 9.72901C22.7197 9.77168 22.7267 9.80594 22.7315 9.83125L22.7373 9.86245C22.8034 10.2713 22.5286 10.6739 22.1197 10.7401C21.712 10.8061 21.3279 10.53 21.2601 10.1231C21.258 10.1121 21.2522 10.0828 21.2461 10.0551C21.2337 9.9997 21.2124 9.91188 21.1786 9.79572C21.1109 9.56339 20.9934 9.21806 20.7982 8.79238C20.4084 7.94207 19.7074 6.76789 18.4695 5.53002C17.2317 4.29216 16.0575 3.59117 15.2072 3.20134C14.7815 3.00618 14.4362 2.88865 14.2038 2.82097C14.0877 2.78714 13.9417 2.75363 13.8863 2.7413C13.4793 2.67347 13.1935 2.28755 13.2595 1.87983Z" />
<path fillRule="evenodd" clipRule="evenodd" d="M13.4857 5.3293C13.5995 4.93102 14.0146 4.7004 14.4129 4.81419L14.2069 5.53534C14.4129 4.81419 14.4129 4.81419 14.4129 4.81419L14.4144 4.81461L14.4159 4.81505L14.4192 4.81602L14.427 4.81834L14.4468 4.8245C14.4618 4.82932 14.4807 4.8356 14.5031 4.84357C14.548 4.85951 14.6074 4.88217 14.6802 4.91337C14.8259 4.97581 15.0249 5.07223 15.2695 5.21694C15.7589 5.50662 16.4271 5.9878 17.2121 6.77277C17.9971 7.55775 18.4782 8.22593 18.7679 8.7154C18.9126 8.95991 19.009 9.15897 19.0715 9.30466C19.1027 9.37746 19.1254 9.43682 19.1413 9.48173C19.1493 9.50418 19.1555 9.52301 19.1604 9.53809L19.1665 9.55788L19.1688 9.56563L19.1698 9.56896L19.1702 9.5705C19.1702 9.5705 19.1707 9.57194 18.4495 9.77798L19.1707 9.57194C19.2845 9.97021 19.0538 10.3853 18.6556 10.4991C18.2607 10.6119 17.8492 10.3862 17.7313 9.99413L17.7276 9.98335C17.7223 9.96832 17.7113 9.93874 17.6928 9.89554C17.6558 9.8092 17.5887 9.66797 17.4771 9.47938C17.2541 9.10264 16.8514 8.53339 16.1514 7.83343C15.4515 7.13348 14.8822 6.73078 14.5055 6.50781C14.3169 6.39619 14.1757 6.32909 14.0893 6.29209C14.0461 6.27358 14.0165 6.26254 14.0015 6.25721L13.9907 6.25352C13.5987 6.13564 13.3729 5.72419 13.4857 5.3293Z" /></symbol>

<symbol id="icon-cross" viewBox="0 0 32 32">
<path stroke-linejoin="round" stroke-linecap="round" stroke-miterlimit="4" stroke-width="2" d="M25.333 6.667l-18.667 18.667M6.667 6.667l18.667 18.667"></path>
</symbol>

<symbol  id="icon-mobile-menu-open" viewBox="0 0 24 24">
		<path d="M4 5h16a1 1 0 0 1 0 2H4a1 1 0 1 1 0-2zm0 6h16a1 1 0 0 1 0 2H4a1 1 0 0 1 0-2zm0 6h16a1 1 0 0 1 0 2H4a1 1 0 0 1 0-2z"/>
 </symbol>

<symbol id="icon-search" viewBox="0 0 32 32">
<path d="M25.96 27.374c0.391 0.391 1.024 0.391 1.414 0s0.391-1.024 0-1.414l-1.414 1.414zM23 14c0 4.971-4.029 9-9 9v2c6.075 0 11-4.925 11-11h-2zM14 23c-4.971 0-9-4.029-9-9h-2c0 6.075 4.925 11 11 11v-2zM5 14c0-4.971 4.029-9 9-9v-2c-6.075 0-11 4.925-11 11h2zM14 5c4.971 0 9 4.029 9 9h2c0-6.075-4.925-11-11-11v2zM27.374 25.96l-5.583-5.583-1.414 1.414 5.583 5.583 1.414-1.414z">
</path>
</symbol>

<symbol id="icon-telegram" viewBox="0 0 32 32">
  <path d="M16 0.5c-8.563 0-15.5 6.938-15.5 15.5s6.938 15.5 15.5 15.5c8.563 0 15.5-6.938 15.5-15.5s-6.938-15.5-15.5-15.5zM23.613 11.119l-2.544 11.988c-0.188 0.85-0.694 1.056-1.4 0.656l-3.875-2.856-1.869 1.8c-0.206 0.206-0.381 0.381-0.781 0.381l0.275-3.944 7.181-6.488c0.313-0.275-0.069-0.431-0.482-0.156l-8.875 5.587-3.825-1.194c-0.831-0.262-0.85-0.831 0.175-1.231l14.944-5.763c0.694-0.25 1.3 0.169 1.075 1.219z"/>
</symbol>

<symbol id="icon-viber"  viewBox="0 0 32 32">
<path d="M16,0C8.1,0,0,1.7,0,14c0,6.6,2.3,10.7,7,12.6v3.7c0,0.7,0.4,1.3,1,1.6C8.2,32,8.5,32,8.7,32c0.4,0,0.9-0.2,1.2-0.5l3.6-3.6
	c0.8,0,1.6,0.1,2.5,0.1c7.9,0,16-1.7,16-14S23.9,0,16,0z M15.5,10.2c1.8,0,3.3,1.5,3.3,3.3c0,0.6-0.4,1-1,1s-1-0.4-1-1
	c0-0.7-0.6-1.3-1.3-1.3c-0.6,0-1-0.4-1-1S14.9,10.2,15.5,10.2z M14.5,8.1c0-0.6,0.4-1,1-1c3.5,0,6.4,2.9,6.4,6.4c0,0.6-0.4,1-1,1
	s-1-0.4-1-1c0-2.4-2-4.4-4.4-4.4C14.9,9.1,14.5,8.6,14.5,8.1z M22.7,20.5c-0.4,1.2-1.9,2.2-3.2,2.4C19.2,23,18.9,23,18.5,23
	c-0.8,0-2-0.2-4.1-1.1c-2.4-1-4.8-3.1-6.7-5.8L7.7,16C7.1,15.1,6,13.4,6,11.6c0-2.2,1.1-3.3,1.5-3.8C8.1,7.3,8.8,7,9.6,7
	c0.2,0,0.3,0,0.5,0c0.7,0,1.2,0.2,1.7,1.2l0.4,0.8c0.3,0.8,0.7,1.7,0.8,1.8c0.3,0.6,0.3,1.1,0,1.6c-0.1,0.3-0.3,0.5-0.5,0.7
	c-0.1,0.2-0.2,0.3-0.3,0.3c-0.1,0.1-0.1,0.1-0.2,0.2c0.3,0.5,0.9,1.4,1.7,2.1c1.2,1.1,2.1,1.4,2.6,1.6l0,0c0.2-0.2,0.4-0.6,0.7-0.9
	l0.1-0.2c0.5-0.7,1.3-0.9,2.1-0.6c0.4,0.2,2.6,1.2,2.6,1.2l0.2,0.1c0.3,0.2,0.7,0.3,0.9,0.7C23.2,18.5,22.9,19.8,22.7,20.5z
	 M24,14.5c-0.6,0-1-0.4-1-1C23,9.4,19.6,6,15.5,6c-0.6,0-1-0.4-1-1s0.4-1,1-1c5.2,0,9.5,4.3,9.5,9.5C25,14.1,24.6,14.5,24,14.5z"/>
</symbol>

<symbol id="icon-logo1" viewBox="-51.46 -51.46 531.76 531.76" xml:space="preserve"  stroke-width="0.0042883800000000005">
<g id="SVGRepo_bgCarrier" stroke-width="0" transform="translate(0,0), scale(1)">

</g>
<g id="SVGRepo_tracerCarrier" stroke-linecap="round" stroke-linejoin="round" stroke="#CCCCCC" stroke-width="42.026123999999996"/>
<g id="SVGRepo_iconCarrier"> <g> <g> <path d="M375.117,420.893l-35.995-49.386v-27.525c0-2.761-2.239-5-5-5h-26.367c-2.333-23.282-20.935-41.838-44.238-44.102V169.743 h70.547c2.761,0,5-2.239,5-5V76.544c0-2.761-2.239-5-5-5h-70.547V5c0-2.761-2.239-5-5-5H170.32c-2.761,0-5,2.239-5,5v66.544 H94.773c-2.761,0-5,2.239-5,5v88.199c0,2.761,2.239,5,5,5h70.547v125.154c-23.088,2.359-41.489,20.876-43.803,44.085H94.716 c-2.761,0-5,2.239-5,5v27.525l-35.995,49.386c-1.108,1.521-1.269,3.534-0.416,5.211c0.852,1.677,2.575,2.733,4.456,2.733h313.315 c1.881,0,3.604-1.056,4.457-2.733C376.386,424.428,376.226,422.414,375.117,420.893z M170.32,304.643c2.761,0,5-2.239,5-5v-134.9 c0-2.761-2.239-5-5-5H99.773V81.544h70.547c2.761,0,5-2.239,5-5V10h78.198v66.544c0,2.761,2.239,5,5,5h70.547v78.199h-70.547 c-2.761,0-5,2.239-5,5v134.899c0,2.761,2.239,5,5,5c0.068,0,0.132-0.017,0.199-0.02v0.021c19.987,0,36.524,15.005,38.967,34.339 H286.07c-0.928-5.385-3.417-10.042-7.448-13.884c-9.621-9.169-25.708-11.031-33.985-11.354V151.901h70.635c2.761,0,5-2.239,5-5 v-52.59c0-2.761-2.239-5-5-5h-70.635v-65.81c0-2.761-2.239-5-5-5h-50.436c-2.761,0-5,2.239-5,5v65.81h-70.635 c-2.761,0-5,2.239-5,5v52.59c0,2.761,2.239,5,5,5h70.635v161.844c-8.278,0.323-24.365,2.186-33.985,11.354 c-4.031,3.842-6.52,8.498-7.448,13.884h-11.182C134.016,319.648,150.453,304.643,170.32,304.643z M189.202,141.901h-70.635v-42.59 h70.635c2.761,0,5-2.239,5-5v-65.81h40.436v65.81c0,2.761,2.239,5,5,5h70.635v42.59h-70.635c-2.761,0-5,2.239-5,5v171.82 c0,1.366,0.561,2.672,1.549,3.616c0.988,0.943,2.321,1.439,3.685,1.379c0.215-0.012,21.891-0.891,31.864,8.635 c1.996,1.907,3.352,4.1,4.088,6.632H153.014c0.737-2.532,2.092-4.725,4.088-6.632c9.974-9.525,31.647-8.644,31.859-8.636 c1.37,0.067,2.699-0.431,3.69-1.374c0.99-0.944,1.55-2.252,1.55-3.62v-171.82C194.202,144.14,191.963,141.901,189.202,141.901z M99.716,348.982h229.407v19.191H99.716V348.982z M67.593,418.838l29.638-40.664h234.377l29.638,40.664H67.593z"/> </g> </g> </g>

</symbol>

<symbol viewBox="-4.8 -4.8 57.60 57.60" id="icon-logo2" stroke-width="1.064">

<g id="SVGRepo_bgCarrier" stroke-width="0"/>

<g id="SVGRepo_tracerCarrier" stroke-linecap="round" stroke-linejoin="round"/>

<g id="SVGRepo_iconCarrier">

<defs>

<style>.cls-1{fill:none;stroke:#000000;stroke-linecap:round;stroke-linejoin:round;}</style>

</defs>

<path class="cls-1" d="M40.5,5.5H7.5a2,2,0,0,0-2,2v33a2,2,0,0,0,2,2h33a2,2,0,0,0,2-2V7.5A2,2,0,0,0,40.5,5.5Z"/>

<polyline class="cls-1" points="10.57 37.47 10.57 10.5 24 37.5 37.43 10.54 37.43 37.5"/>

</g>

</symbol>

</defs>
</svg>
